HIERARCHY
ROOT Hips
{
  OFFSET -0.0170744 79.5876 0.125978
  CHANNELS 6 Xposition Yposition Zposition Zrotation Xrotation Yrotation
  JOINT Spine
  {
    OFFSET -0.000355721 21.3001 -0.016921
    CHANNELS 3 Zrotation Xrotation Yrotation
    JOINT LeftArm
    {
      OFFSET 13.5181 21.3012 0
      CHANNELS 3 Zrotation Xrotation Yrotation
      JOINT LeftForeArm
      {
        OFFSET 24.5783 0 0
        CHANNELS 3 Zrotation Xrotation Yrotation
        JOINT LeftHand
        {
          OFFSET 24.5783 0 0
          CHANNELS 3 Zrotation Xrotation Yrotation
          End Site
          {
            OFFSET 7.32568 1.52588e-05 0.0169305
          }
        }
      }
    }
    JOINT Head
    {
      OFFSET 0 27.4458 -0.00489235
      CHANNELS 3 Zrotation Xrotation Yrotation
      End Site
      {
        OFFSET 0 0 0
      }
    }
    JOINT RightArm
    {
      OFFSET -13.5174 21.3012 0
      CHANNELS 3 Zrotation Xrotation Yrotation
      JOINT RightForeArm
      {
        OFFSET -24.5783 0 0
        CHANNELS 3 Zrotation Xrotation Yrotation
        JOINT RightHand
        {
          OFFSET -24.5783 0 0
          CHANNELS 3 Zrotation Xrotation Yrotation
          End Site
          {
            OFFSET -7.32568 1.52588e-05 0.0169305
          }
        }
      }
    }
  }
  JOINT RightUpLeg
  {
    OFFSET -8.44614 -9.41038 0.835684
    CHANNELS 3 Zrotation Xrotation Yrotation
    JOINT RightLeg
    {
      OFFSET 0 -40.9639 0
      CHANNELS 3 Zrotation Xrotation Yrotation
      JOINT RightFoot
      {
        OFFSET 0 -40.9639 0
        CHANNELS 3 Zrotation Xrotation Yrotation
        End Site
        {
          OFFSET 0.50614 -9.67405 14.6709
        }
      }
    }
  }
  JOINT LeftUpLeg
  {
    OFFSET 8.44614 -9.41038 0.835684
    CHANNELS 3 Zrotation Xrotation Yrotation
    JOINT LeftLeg
    {
      OFFSET 0 -40.9639 0
      CHANNELS 3 Zrotation Xrotation Yrotation
      JOINT LeftFoot
      {
        OFFSET 0 -40.9639 0
        CHANNELS 3 Zrotation Xrotation Yrotation
        End Site
        {
          OFFSET -0.50614 -9.67405 14.6709
        }
      }
    }
  }
}
MOTION
Frames:	22
Frame Time:	0.0333333
-0.0170744 79.5876 0.125978 7.35907 2.98893 -50.437 -2.15223 10.8647 3.23491 -55.8928 -7.69375 -10.6731 -14.7921 -15.3125 -30.6583 6.85875 2.17327 -2.79135 -8.37395 -4.90277 44.6715 49.2542 1.89685 0.530732 14.0967 -6.47391 48.2078 6.1035 4.26633 35.4615 -27.2965 -29.9352 -15.7994 -12.7354 55.9918 12.5458 36.9858 -58.6162 17.8477 43.171 -31.3887 62.7262 4.83398 48.1473 -23.7127 -8.24169 -33.022 0.788746 
-0.520982 79.377 0.534575 5.66387 2.13984 -48.3515 -2.26133 10.9488 3.1178 -54.5179 -4.53996 -10.1626 -14.0561 -13.5239 -31.3475 7.04751 10.3776 -1.87118 -8.64452 -0.593886 40.9317 48.6774 0.77958 -3.16092 14.1794 -6.94466 48.3266 6.55402 3.55937 34.8727 -26.6773 -26.5395 -15.601 -12.9303 56.1516 11.8706 38.6152 -59.5126 18.9687 43.2549 -30.2827 62.3329 4.75837 49.2418 -26.2357 -7.29898 -33.5006 0.731226 
-0.628649 79.4536 0.649906 4.76486 2.32482 -45.4587 -1.84574 10.7351 2.45672 -52.6167 1.02734 -9.81862 -11.6083 -9.33004 -37.6418 5.64474 26.2156 -0.996728 -8.84674 5.58867 33.5828 48.0426 -3.13721 -9.622 14.4263 -7.5139 49.4363 8.03882 3.46898 34.7675 -25.5954 -24.1422 -15.5054 -12.7265 55.5715 11.1579 37.7196 -60.6175 16.643 43.2783 -30.89 62.5705 4.76873 49.0237 -25.7377 -8.14003 -32.4314 -2.8766 
-0.0441884 79.9911 0.352729 6.59438 7.19642 -42.2667 -0.733485 9.70945 1.59517 -48.7548 9.57524 -9.94325 -6.04778 -7.87508 -52.5527 7.61173 33.9953 -9.42259 -5.0511 9.28434 22.9756 48.8619 -12.8492 -16.8587 14.6343 -7.35922 51.0006 9.94379 4.50032 36.4081 -22.9713 -27.3343 -15.5903 -12.2433 53.8447 8.47376 34.4954 -60.5007 10.6959 45.4673 -36.5842 65.5212 4.22478 46.4357 -25.7079 -7.56052 -29.6561 -3.50207 
1.00356 80.6243 -0.450382 12.2394 14.3326 -40.35 -0.0519707 9.17495 0.407268 -45.2327 19.0991 -12.4636 -1.3349 -12.8006 -68.1414 2.14506 19.6661 -12.6422 2.44884 -2.14936 15.3036 49.2065 -25.3507 -22.0879 14.2752 -6.16721 49.9527 8.55531 4.85777 38.3252 -22.8913 -35.9366 -15.6479 -11.9359 52.2477 5.29164 30.1195 -59.3754 2.77008 46.6828 -45.7868 69.4992 3.26345 40.3624 -24.3588 -7.03218 -25.164 -2.39944 
2.33588 81.4991 -1.62011 17.3709 19.0722 -40.1856 0.127034 10.6159 -1.06893 -37.5263 41.8399 -15.7635 -1.60946 -16.887 -85.5593 1.14198 -3.02093 -19.2675 10.8848 -23.8568 14.7412 46.5126 -32.1661 -27.2555 13.7357 -5.08735 47.2685 5.36388 1.37953 39.864 -24.9079 -42.5578 -16.0102 -11.2235 49.7847 2.56739 26.5061 -56.8529 -3.1316 43.6967 -51.8524 69.4547 1.95087 30.9092 -22.6068 -6.98189 -19.4838 -0.899277 
3.31246 82.8367 -2.27756 20.1809 20.7463 -42.5018 0.0795163 12.9384 -2.37274 -3.68581 71.8299 -49.281 -5.35408 -21.6434 -102.088 -10.293 -8.86052 -25.8308 13.4835 -35.0255 14.3404 40.447 -30.4843 -30.0035 13.4246 -5.25703 44.826 2.55284 -7.51652 41.2883 -25.7869 -44.9901 -16.1475 -9.70473 45.1717 0.839962 24.3798 -53.1177 -4.83899 37.8479 -51.655 65.1575 0.187029 19.7959 -21.5486 -7.15027 -14.2159 1.98861 
3.6926 83.556 -2.21588 21.9028 22.2441 -46.6658 -0.107966 14.1501 -2.944 62.438 71.9625 -119.191 -3.52185 -25.3467 -97.3743 -17.8387 -14.0021 -27.7842 10.8847 -29.2705 6.08112 36.55 -27.3729 -29.1038 12.0593 -4.30593 44.4343 1.79338 -14.4212 41.8783 -24.5327 -47.1551 -15.7471 -8.48959 41.1838 0.443327 23.5647 -50.0523 -4.05503 38.5374 -50.6209 64.8904 -0.0616705 14.9494 -17.9992 -7.98839 -12.294 2.27727 
4.15402 83.7214 -2.01197 18.6816 21.2459 -48.9477 -0.95487 15.7708 -2.64694 53.9863 72.6649 -105.74 -0.284143 -21.4129 -93.2765 -16.1602 -22.8597 -32.58 8.60282 -7.60272 -0.0169643 34.2779 -20.4292 -24.025 9.75446 -6.67237 34.8663 4.10632 -18.3779 46.8809 -20.8043 -44.9098 -14.6406 -7.90254 39.528 1.48921 24.1897 -48.5266 -1.21973 44.3835 -47.5916 67.8368 0.686903 21.1157 -18.9581 -7.28102 -15.8857 3.57612 
4.62141 83.1915 -2.15757 17.2372 18.9446 -49.7986 -1.75152 16.1351 -2.4489 42.444 72.2612 -89.2994 -3.21441 -20.2768 -101.674 -0.0412288 -19.8235 -16.1468 2.58926 13.7513 1.30654 29.983 -16.5323 -25.2352 8.18832 -5.24685 34.6691 4.39926 -22.4375 46.4731 -21.4617 -44.1658 -14.9188 -8.35145 41.6719 2.95859 25.5304 -48.9458 0.971596 45.9656 -46.3073 68.5929 1.46207 26.4839 -19.4219 -6.65745 -18.6178 3.99328 
4.78732 82.8121 -2.55637 16.7406 15.9404 -50.1824 -2.35744 16.7115 -2.01569 57.1528 70.1675 -107.452 -4.26965 -21.9489 -103.485 1.48899 -25.534 -15.7986 -3.09893 25.9437 2.87723 25.6261 -11.0299 -31.7887 9.8583 -4.98764 42.433 2.98184 -26.731 43.3564 -23.7011 -43.5443 -15.5669 -8.95542 44.1504 4.34901 26.6893 -49.652 2.8058 43.8815 -44.9327 67.1899 1.83219 28.6036 -19.4441 -6.48596 -19.8021 4.24171 
4.92905 82.3125 -2.68873 16.2123 15.8061 -50.7747 -2.25667 17.463 -1.62436 76.0175 65.3286 -131.685 -4.34164 -26.2727 -99.9627 -2.69048 -22.0261 -25.8712 -5.18369 29.4887 3.81819 24.2601 -5.59922 -35.1484 13.0727 -7.91706 44.9718 5.10943 -28.7899 45.3612 -23.3736 -44.2875 -15.5546 -9.37253 45.6975 5.13427 27.1889 -50.1117 3.67042 46.2464 -44.9025 68.4911 2.29738 31.3442 -19.6175 -6.35895 -20.9954 4.42808 
5.14169 81.9282 -2.86006 15.1607 15.4068 -50.9733 -2.40218 18.0653 -1.66202 85.0869 62.1642 -145.476 -5.01735 -28.2711 -98.4226 0.0414161 -13.4476 -28.6608 -6.50171 32.7977 6.89846 25.1866 -3.11134 -34.9294 13.6093 -9.11929 43.681 6.60037 -29.7031 47.2698 -22.8745 -44.2242 -15.4838 -9.71693 46.9352 5.82607 27.6023 -50.4569 4.46124 47.7752 -44.369 69.1521 2.62944 33.4298 -19.9016 -6.23227 -21.8124 4.32647 
5.37255 81.5484 -3.26623 14.6258 14.4641 -51.1643 -2.67936 18.4423 -1.75016 86.766 63.1533 -148.331 -5.90371 -28.4019 -99.9649 0.0282838 -12.1844 -27.2039 -8.3149 34.6555 9.57263 27.4621 -2.37144 -34.4305 13.5026 -8.97518 43.0007 6.60832 -30.1117 48.1737 -23.3225 -44.4508 -15.6508 -10.1916 48.5037 6.63772 27.9982 -50.8374 5.23006 47.9425 -43.8994 69.1045 2.81986 34.6465 -20.0007 -6.1538 -22.1564 4.39337 
5.47539 81.083 -3.74953 14.5411 14.2803 -51.0629 -2.67411 18.5024 -1.7279 85.2616 63.6185 -146.83 -6.13909 -28.7569 -100.176 0.0232632 -10.4716 -27.0573 -8.2232 34.5323 10.292 29.7088 -2.8742 -33.8382 13.4865 -8.73881 42.869 6.60761 -30.5264 48.6732 -23.5663 -45.442 -15.7922 -10.8049 50.2672 7.28387 28.1506 -51.474 5.43194 48.8152 -44.2059 69.68 2.94187 35.5261 -20.1092 -6.16729 -22.1389 4.39398 
5.51438 80.7628 -4.36809 13.9577 14.1772 -50.0129 -2.4627 18.571 -1.73356 83.4508 63.175 -144.763 -6.11078 -29.1279 -99.8489 -0.189593 -9.25335 -26.9251 -7.21884 34.1296 10.2982 32.0079 -3.37197 -33.8292 13.3855 -8.51234 42.314 5.95599 -29.9184 48.3075 -23.389 -45.634 -15.8192 -11.4023 51.7753 7.6213 28.0027 -52.2536 5.06489 48.9775 -44.4263 69.836 2.88175 35.3961 -20.4313 -6.27387 -21.4007 3.81216 
5.58172 80.6047 -4.97291 13.4639 13.5877 -49.3565 -2.4092 18.6329 -1.70077 83.3972 62.8866 -144.253 -6.28117 -29.2332 -100.143 -0.299431 -8.31151 -26.6029 -7.64542 33.6708 11.4492 34.4682 -3.5629 -33.619 13.2959 -8.12943 41.8792 5.21532 -28.0171 47.7224 -23.5105 -45.5224 -15.8927 -11.8361 52.8386 7.98458 27.8478 -52.674 4.96842 48.1779 -44.1553 69.3022 2.76335 34.7543 -20.565 -6.41302 -20.6112 3.46535 
5.56787 80.4891 -5.456 13.3587 12.9387 -49.0735 -2.42287 18.6139 -1.67578 82.843 62.7202 -143.533 -6.3271 -29.181 -100.437 0.0233857 -7.65854 -26.3308 -8.66147 33.0134 12.5522 35.8326 -3.44826 -32.8937 13.2947 -7.81364 41.93 4.62334 -27.0136 46.9986 -23.9283 -45.607 -16.0282 -12.2053 53.7267 8.37213 27.7572 -52.9871 5.02968 47.1992 -43.9179 68.6924 2.75342 34.1006 -19.5607 -6.99008 -19.9063 2.28861 
5.44609 80.3236 -5.95547 12.9335 12.026 -48.4212 -2.42098 18.63 -1.72836 82.5981 62.8958 -143.147 -6.63812 -29.1215 -101.276 -0.271492 -5.96227 -25.2396 -9.35047 32.1831 12.9737 36.546 -2.58459 -32.576 13.2982 -7.74617 41.9767 4.75187 -26.6168 46.3361 -24.321 -45.1943 -16.15 -12.7069 54.8629 8.86289 27.7486 -53.5825 5.13727 46.0274 -43.4404 67.9256 2.6823 33.6543 -19.4853 -7.26607 -19.3374 1.68393 
5.34124 80.2265 -6.43306 12.4997 10.956 -48.0746 -2.48483 18.6129 -1.71708 82.1133 63.526 -142.387 -7.21572 -28.9355 -102.698 -0.474231 -3.09294 -23.6786 -10.1073 31.0296 13.6247 37.0337 -1.26075 -32.4018 13.3765 -7.766 42.4967 4.88034 -26.4801 45.5738 -24.7068 -44.671 -16.249 -13.11 55.7642 9.38095 27.7371 -53.983 5.44267 44.7074 -42.6265 66.9889 2.54946 33.0898 -19.7772 -7.37442 -18.8741 1.73079 
5.25708 80.2369 -6.77773 12.122 10.0012 -47.9024 -2.54566 18.5684 -1.68873 81.5141 64.2167 -141.399 -7.27492 -28.6973 -103.105 -0.950571 -2.44255 -23.3301 -10.7498 30.0161 14.0832 37.522 -0.0357394 -32.0299 13.4633 -7.8169 43.074 4.96853 -26.3343 44.8358 -24.9953 -44.052 -16.3009 -13.3119 56.2235 9.72098 27.6963 -54.1635 5.74492 43.3966 -41.7338 66.056 2.40185 32.3715 -19.9337 -7.49215 -18.4466 1.77736 
5.17848 80.3085 -7.01605 11.7579 9.2255 -47.6011 -2.52782 18.4593 -1.70974 80.6513 64.7758 -139.894 -7.05698 -28.4578 -102.821 -1.80024 -3.41493 -23.7723 -11.0079 28.7953 14.6938 38.0931 0.823504 -31.4478 13.517 -7.87689 43.4298 5.02876 -26.0524 44.1615 -25.1852 -43.2976 -16.3123 -13.3907 56.4008 9.85333 27.6321 -54.2868 5.87808 42.13 -40.943 65.2032 2.22345 31.558 -20.1878 -7.54407 -18.0067 1.81488 
